<svg width="26" height="26" viewBox="0 0 26 26" fill="none" xmlns="http://www.w3.org/2000/svg">
<path d="M1 6.53845H25" stroke="black" stroke-width="1.71429" stroke-linecap="round" stroke-linejoin="round"/>
<path d="M4 6.53845H22V23.1538C22 23.6435 21.7893 24.113 21.4142 24.4593C21.0391 24.8055 20.5304 25 20 25H6C5.46957 25 4.96086 24.8055 4.58579 24.4593C4.21071 24.113 4 23.6435 4 23.1538V6.53845Z" stroke="black" stroke-width="1.71429" stroke-linecap="round" stroke-linejoin="round"/>
<path d="M8 6.53846V5.61539C8 4.39131 8.52678 3.21737 9.46447 2.35182C10.4021 1.48626 11.6739 1 13 1C14.3261 1 15.5979 1.48626 16.5355 2.35182C17.4732 3.21737 18 4.39131 18 5.61539V6.53846" stroke="black" stroke-width="1.71429" stroke-linecap="round" stroke-linejoin="round"/>
<path d="M10 10.2308V20.3846" stroke="black" stroke-width="1.71429" stroke-linecap="round" stroke-linejoin="round"/>
<path d="M16 10.2308V20.3846" stroke="black" stroke-width="1.71429" stroke-linecap="round" stroke-linejoin="round"/>
</svg>
