<svg width="25" height="23" viewBox="0 0 25 23" fill="none" xmlns="http://www.w3.org/2000/svg">
<path d="M11.3064 3.69221H4.11143C3.56622 3.69221 3.04334 3.88671 2.65782 4.23293C2.2723 4.57914 2.05572 5.0487 2.05572 5.53832V18.4611C2.05572 18.9507 2.2723 19.4202 2.65782 19.7665C3.04334 20.1127 3.56622 20.3072 4.11143 20.3072H18.5014C19.0467 20.3072 19.5695 20.1127 19.9551 19.7665C20.3406 19.4202 20.5572 18.9507 20.5572 18.4611V11.9997" stroke="black" stroke-width="2" stroke-linecap="round" stroke-linejoin="round"/>
<path d="M19.0154 2.30763C19.4243 1.94041 19.9789 1.73412 20.5572 1.73412C21.1354 1.73412 21.69 1.94041 22.0989 2.30763C22.5079 2.67484 22.7376 3.17289 22.7376 3.69221C22.7376 4.21153 22.5079 4.70957 22.0989 5.07679L12.3343 13.8458L8.22286 14.7688L9.25072 11.0766L19.0154 2.30763Z" stroke="black" stroke-width="2" stroke-linecap="round" stroke-linejoin="round"/>
</svg>
