<svg width="24" height="21" viewBox="0 0 24 21" fill="none" xmlns="http://www.w3.org/2000/svg">
<g clip-path="url(#clip0_12_218)">
<path d="M14.5714 7.5C15.5182 7.5 16.2857 6.82843 16.2857 6C16.2857 5.17157 15.5182 4.5 14.5714 4.5C13.6247 4.5 12.8571 5.17157 12.8571 6C12.8571 6.82843 13.6247 7.5 14.5714 7.5Z" stroke="black" stroke-width="1.71429" stroke-linecap="round" stroke-linejoin="round"/>
<path d="M7.71429 15C8.18768 15 8.57143 14.6642 8.57143 14.25C8.57143 13.8358 8.18768 13.5 7.71429 13.5C7.2409 13.5 6.85715 13.8358 6.85715 14.25C6.85715 14.6642 7.2409 15 7.71429 15Z" stroke="black" stroke-width="1.71429" stroke-linecap="round" stroke-linejoin="round"/>
<path d="M7.71429 9.75C8.66106 9.75 9.42857 9.07843 9.42857 8.25C9.42857 7.42157 8.66106 6.75 7.71429 6.75C6.76751 6.75 6 7.42157 6 8.25C6 9.07843 6.76751 9.75 7.71429 9.75Z" stroke="black" stroke-width="1.71429" stroke-linecap="round" stroke-linejoin="round"/>
<path d="M16.32 18.42C16.3009 18.129 16.1853 17.8493 15.9875 17.6148C15.7896 17.3804 15.5179 17.2015 15.2057 17.1C14.4304 16.877 13.7713 16.4193 13.3471 15.8092C12.9229 15.1991 12.7614 14.4766 12.8916 13.7716C13.0217 13.0666 13.435 12.4253 14.0572 11.9631C14.6794 11.5009 15.4696 11.248 16.2857 11.25H19.4914C20.0413 11.2513 20.5834 11.137 21.0721 10.9165C21.5608 10.696 21.9817 10.376 22.2994 9.9833C22.6171 9.59063 22.8221 9.13687 22.8973 8.66029C22.9725 8.18371 22.9156 7.6983 22.7314 7.245C22.0496 5.56046 20.8517 4.07228 19.2688 2.94307C17.6858 1.81386 15.7786 1.08706 13.7555 0.842062C11.7324 0.597067 9.67125 0.843307 7.79727 1.55388C5.92329 2.26445 4.30854 3.41203 3.12946 4.87122C1.95037 6.33041 1.2523 8.04508 1.11152 9.82791C0.97073 11.6107 1.39264 13.3931 2.33116 14.9803C3.26967 16.5676 4.68869 17.8986 6.43317 18.8279C8.17765 19.7573 10.1805 20.2492 12.2229 20.25C13.2315 20.2525 14.2355 20.1313 15.2057 19.89C15.5621 19.8026 15.8706 19.6061 16.0752 19.3363C16.2797 19.0664 16.3666 18.7412 16.32 18.42V18.42Z" stroke="black" stroke-width="1.71429" stroke-linecap="round" stroke-linejoin="round"/>
</g>
<defs>
<clipPath id="clip0_12_218">
<rect width="24" height="21" fill="white"/>
</clipPath>
</defs>
</svg>
